REM DIRINDEX 1\2\6,1\2\4\7,1\2\4\8,1\2\5\9,1\3\12,1\3\10\13,1\3\10\14,1\3\10\15,1\3\11\16,1\3\11\17
REM DIRNAME folder01,folder02,folder03,folder04,folder05,folder06,folder07,folder08,folder09,folder10,folder11,folder12,folder13,folder14,folder15,folder16,folder17
TITLE ""
FILE "115.mp3" MP3
  TRACK 01 AUDIO
    TITLE "6:cjc048_02836"
    INDEX 01 00:00:00
  TRACK 02 AUDIO
    TITLE "9:cjc048_02837"
    INDEX 01 00:01:69
  TRACK 03 AUDIO
    TITLE "0:"
    INDEX 01 00:03:08
  TRACK 04 AUDIO
    TITLE "9:cjc048_02838"
    INDEX 01 00:03:55
  TRACK 05 AUDIO
    TITLE "0:"
    INDEX 01 00:05:03
  TRACK 06 AUDIO
    TITLE "9:cjc048_02839"
    INDEX 01 00:05:50
  TRACK 07 AUDIO
    TITLE "0:"
    INDEX 01 00:06:63
  TRACK 08 AUDIO
    TITLE "9:cjc048_02840"
    INDEX 01 00:07:35
  TRACK 09 AUDIO
    TITLE "0:"
    INDEX 01 00:08:72
  TRACK 10 AUDIO
    TITLE "9:cjc048_02841"
    INDEX 01 00:09:42
  TRACK 11 AUDIO
    TITLE "0:"
    INDEX 01 00:10:47
  TRACK 12 AUDIO
    TITLE "9:cjc048_02842"
    INDEX 01 00:11:19
  TRACK 13 AUDIO
    TITLE "0:"
    INDEX 01 00:12:34
  TRACK 14 AUDIO
    TITLE "9:cjc048_02843"
    INDEX 01 00:13:04
  TRACK 15 AUDIO
    TITLE "0:"
    INDEX 01 00:14:17
  TRACK 16 AUDIO
    TITLE "9:cjc048_02844"
    INDEX 01 00:14:62
  TRACK 17 AUDIO
    TITLE "0:"
    INDEX 01 00:15:66
  TRACK 18 AUDIO
    TITLE "9:cjc048_02845"
    INDEX 01 00:16:38
  TRACK 19 AUDIO
    TITLE "0:"
    INDEX 01 00:17:63
  TRACK 20 AUDIO
    TITLE "9:cjc048_02846"
    INDEX 01 00:18:35
  TRACK 21 AUDIO
    TITLE "0:"
    INDEX 01 00:19:46
  TRACK 22 AUDIO
    TITLE "9:cjc048_02847"
    INDEX 01 00:20:20
  TRACK 23 AUDIO
    TITLE "0:"
    INDEX 01 00:21:19
  TRACK 24 AUDIO
    TITLE "9:cjc048_02848"
    INDEX 01 00:21:64
  TRACK 25 AUDIO
    TITLE "0:"
    INDEX 01 00:22:66
  TRACK 26 AUDIO
    TITLE "9:cjc048_02849"
    INDEX 01 00:23:36
  TRACK 27 AUDIO
    TITLE "0:"
    INDEX 01 00:24:41
  TRACK 28 AUDIO
    TITLE "9:cjc048_02850"
    INDEX 01 00:25:09
  TRACK 29 AUDIO
    TITLE "0:"
    INDEX 01 00:26:05
  TRACK 30 AUDIO
    TITLE "9:cjc048_02851"
    INDEX 01 00:26:52
  TRACK 31 AUDIO
    TITLE "0:"
    INDEX 01 00:27:71
  TRACK 32 AUDIO
    TITLE "9:cjc048_02852"
    INDEX 01 00:28:41
  TRACK 33 AUDIO
    TITLE "0:"
    INDEX 01 00:29:50
  TRACK 34 AUDIO
    TITLE "9:cjc048_02853"
    INDEX 01 00:30:20
  TRACK 35 AUDIO
    TITLE "0:"
    INDEX 01 00:31:27
  TRACK 36 AUDIO
    TITLE "9:cjc048_02854"
    INDEX 01 00:32:00
  TRACK 37 AUDIO
    TITLE "0:"
    INDEX 01 00:33:03
  TRACK 38 AUDIO
    TITLE "9:cjc048_02855"
    INDEX 01 00:33:50
  TRACK 39 AUDIO
    TITLE "0:"
    INDEX 01 00:34:67
  TRACK 40 AUDIO
    TITLE "9:cjc048_02856"
    INDEX 01 00:35:37
  TRACK 41 AUDIO
    TITLE "0:"
    INDEX 01 00:36:38
  TRACK 42 AUDIO
    TITLE "9:cjc048_02857"
    INDEX 01 00:37:08
  TRACK 43 AUDIO
    TITLE "0:"
    INDEX 01 00:38:16
  TRACK 44 AUDIO
    TITLE "9:cjc048_02858"
    INDEX 01 00:38:63
  TRACK 45 AUDIO
    TITLE "0:"
    INDEX 01 00:39:66
  TRACK 46 AUDIO
    TITLE "9:cjc048_02859"
    INDEX 01 00:40:36
  TRACK 47 AUDIO
    TITLE "0:"
    INDEX 01 00:41:53
  TRACK 48 AUDIO
    TITLE "9:cjc048_02860"
    INDEX 01 00:42:25
  TRACK 49 AUDIO
    TITLE "0:"
    INDEX 01 00:43:25
  TRACK 50 AUDIO
    TITLE "9:cjc048_02861"
    INDEX 01 00:43:72
  TRACK 51 AUDIO
    TITLE "0:"
    INDEX 01 00:45:04
  TRACK 52 AUDIO
    TITLE "9:cjc048_02862"
    INDEX 01 00:45:47
  TRACK 53 AUDIO
    TITLE "0:"
    INDEX 01 00:46:56
  TRACK 54 AUDIO
    TITLE "9:cjc048_02863"
    INDEX 01 00:47:27
  TRACK 55 AUDIO
    TITLE "0:"
    INDEX 01 00:48:32
  TRACK 56 AUDIO
    TITLE "9:cjc048_02864"
    INDEX 01 00:49:04
  TRACK 57 AUDIO
    TITLE "0:"
    INDEX 01 00:50:09
  TRACK 58 AUDIO
    TITLE "9:cjc048_02865"
    INDEX 01 00:50:54
  TRACK 59 AUDIO
    TITLE "0:"
    INDEX 01 00:51:63
  TRACK 60 AUDIO
    TITLE "9:cjc048_02866"
    INDEX 01 00:52:36
  TRACK 61 AUDIO
    TITLE "0:"
    INDEX 01 00:53:66
  TRACK 62 AUDIO
    TITLE "9:cjc048_02867"
    INDEX 01 00:54:34
  TRACK 63 AUDIO
    TITLE "0:"
    INDEX 01 00:55:40
  TRACK 64 AUDIO
    TITLE "9:cjc048_02868"
    INDEX 01 00:56:12
  TRACK 65 AUDIO
    TITLE "0:"
    INDEX 01 00:57:23
  TRACK 66 AUDIO
    TITLE "9:cjc048_02869"
    INDEX 01 00:57:70
  TRACK 67 AUDIO
    TITLE "0:"
    INDEX 01 00:58:73
  TRACK 68 AUDIO
    TITLE "9:cjc048_02870"
    INDEX 01 00:59:49
  TRACK 69 AUDIO
    TITLE "0:"
    INDEX 01 01:00:68
  TRACK 70 AUDIO
    TITLE "9:cjc048_02871"
    INDEX 01 01:01:36
  TRACK 71 AUDIO
    TITLE "0:"
    INDEX 01 01:02:20
  TRACK 72 AUDIO
    TITLE "9:cjc048_02872"
    INDEX 01 01:03:12
  TRACK 73 AUDIO
    TITLE "0:"
    INDEX 01 01:04:05
  TRACK 74 AUDIO
    TITLE "9:cjc048_02873"
    INDEX 01 01:04:48
  TRACK 75 AUDIO
    TITLE "0:"
    INDEX 01 01:05:56
  TRACK 76 AUDIO
    TITLE "9:cjc048_02874"
    INDEX 01 01:06:30
  TRACK 77 AUDIO
    TITLE "0:"
    INDEX 01 01:08:03
  TRACK 78 AUDIO
    TITLE "9:cjc048_02875"
    INDEX 01 01:08:46
  TRACK 79 AUDIO
    TITLE "0:"
    INDEX 01 01:09:52
